# xmcd CD database file
#
# Track frame offsets:
#	150
#	14975
#	27582
#	45107
#	58681
#	77301
#	94116
#	114556
#	138464
#	153544
#	174261
#	207431
#	234363
#	253913
#	270328
#	289706
#	314396
#	329181
#	344011
#
# Disc length: 4804 seconds
#
# Revision: 0
# Processed by: cddbd v1.5.2PL0 Copyright (c) Steve Scherf et al.
# Submitted via: CDex 1.51
#
DISCID=1612c213
DTITLE=North Mississippi Allstars - (2009) Favorites
DYEAR=2009
DGENRE=Blues
TTITLE0=51 Phantom
TTITLE1=Mississippi Boll Weevil
TTITLE2=Take Yo Time, Rodney
TTITLE3=Shake (Yo Mama)
TTITLE4=Skake 'Em On Down
TTITLE5=Snakes In My Bushes
TTITLE6=Po' Black Maddie
TTITLE7=Skinny Woman
TTITLE8=Drinking Muddy Water
TTITLE9=K.C. Jones (On The Road Again)
TTITLE10=Mean Ol' Wind Died Down
TTITLE11=Soldier
TTITLE12=Storm
TTITLE13=Teasin' Brown
TTITLE14=Moonshine
TTITLE15=Ship
TTITLE16=Leavin'
TTITLE17=Freedom Highway
TTITLE18=Stompin' My Foot
EXTD=YEAR: 2009
EXTT0=
EXTT1=
EXTT2=
EXTT3=
EXTT4=
EXTT5=
EXTT6=
EXTT7=
EXTT8=
EXTT9=
EXTT10=
EXTT11=
EXTT12=
EXTT13=
EXTT14=
EXTT15=
EXTT16=
EXTT17=
EXTT18=
PLAYORDER=
